<svg width="17" height="24" viewBox="0 0 17 24" fill="none" xmlns="http://www.w3.org/2000/svg">
<mask id="path-1-inside-1" fill="white">
<path fill-rule="evenodd" clip-rule="evenodd" d="M0 0H16V15H16L16.0273 23L7.99009 17.6814L0.0112305 23.0166L0.00150541 16H0V0Z"/>
</mask>
<path fill-rule="evenodd" clip-rule="evenodd" d="M0 0H16V15H16L16.0273 23L7.99009 17.6814L0.0112305 23.0166L0.00150541 16H0V0Z" fill="#6100FF"/>
<path d="M16 0H17V-1H16V0ZM0 0V-1H-1V0H0ZM16 15H15V16H16V15ZM16 15L17 14.9966L16.9966 14H16V15ZM16.0273 23L15.4755 23.8339L17.0337 24.8651L17.0273 22.9966L16.0273 23ZM7.99009 17.6814L8.54194 16.8474L7.98721 16.4803L7.43424 16.8501L7.99009 17.6814ZM0.0112305 23.0166L-0.988769 23.018L-0.986179 24.8865L0.567083 23.8479L0.0112305 23.0166ZM0.00150541 16L1.0015 15.9986L1.00012 15H0.00150541V16ZM0 16H-1V17H0V16ZM16 -1H0V1H16V-1ZM17 15V0H15V15H17ZM16 16H16V14H16V16ZM15 15.0035L15.0273 23.0034L17.0273 22.9966L17 14.9966L15 15.0035ZM16.5792 22.1661L8.54194 16.8474L7.43823 18.5153L15.4755 23.8339L16.5792 22.1661ZM0.567083 23.8479L8.54594 18.5127L7.43424 16.8501L-0.544622 22.1853L0.567083 23.8479ZM-0.998494 16.0014L-0.988769 23.018L1.01123 23.0152L1.0015 15.9986L-0.998494 16.0014ZM0 17H0.00150541V15H0V17ZM-1 0V16H1V0H-1Z" fill="#6100FF" mask="url(#path-1-inside-1)"/>
</svg>
