<svg width="205" height="195" viewBox="0 0 205 195" fill="none" xmlns="http://www.w3.org/2000/svg">
<path fill-rule="evenodd" clip-rule="evenodd" d="M50.3645 186.946L54.4821 192.606C45.0802 199.445 32.4206 190.256 36.0094 179.198L54.358 122.661L5.62496 87.214C-3.6043 80.5008 0.865404 65.9092 12.2711 65.5168L70.7913 63.5035L90.9074 8.3548L97.4836 10.7535L76.9053 67.1693C76.207 69.0838 74.4167 70.3829 72.38 70.4529L12.5118 72.5127C7.7594 72.6762 5.89705 78.756 9.74256 81.5532L59.6496 117.855C61.4 119.128 62.1324 121.383 61.4643 123.442L42.6675 181.359C41.1722 185.966 46.447 189.795 50.3645 186.946ZM102.5 157.679L54.4821 192.606L50.3645 186.946L99.5589 151.162C101.312 149.887 103.688 149.887 105.441 151.162L154.636 186.946C158.553 189.795 163.828 185.966 162.333 181.359L143.536 123.442C142.868 121.383 143.6 119.128 145.351 117.855L195.23 81.5731C199.079 78.7738 197.21 72.6891 192.454 72.5323L129.397 70.4533C127.282 70.3836 125.44 68.9902 124.798 66.9741L106.945 10.9488C105.497 6.40608 99.1174 6.2744 97.4836 10.7535L90.9074 8.3548C94.8285 -2.39509 110.14 -2.0791 113.614 8.82348L131.039 63.5036L192.684 65.5361C204.099 65.9125 208.584 80.5157 199.348 87.2339L150.642 122.661L168.991 179.198C172.58 190.256 159.92 199.445 150.518 192.606L102.5 157.679ZM103.677 156.823C103.677 156.823 103.673 156.826 103.672 156.827L103.677 156.823ZM101.328 156.827C101.327 156.826 101.324 156.823 101.324 156.823L101.328 156.827ZM149.468 123.515L149.471 123.513L149.468 123.515ZM72.1393 63.4571L72.1338 63.4573Z" fill="#FFCD1C"/>
<path d="M103 150.276L101.492 6L95.9358 8.00539L92.905 13.5202L88.8638 28.0593L84.3176 36.5822L81.2867 46.6092L78.761 56.1348L74.7199 63.1536L66.6376 67.6658H51.9885H39.3599L21.1748 69.6712H11.072L4 72.1779V81.2022L16.6285 91.7305L58.5553 122.814L39.3599 183.978L43.4011 192L51.9885 189.493L103 150.276Z" fill="#FFCD1C"/>
</svg>
