<svg width="268" height="256" viewBox="0 0 268 256" fill="none" xmlns="http://www.w3.org/2000/svg">
<path d="M254.05 85.7505L181 75.1005L148.35 8.90048C142.5 -2.89952 125.55 -3.04952 119.65 8.90048L87 75.1005L13.95 85.7505C0.849994 87.6505 -4.40001 103.8 5.09999 113.05L57.95 164.55L45.45 237.3C43.2 250.45 57.05 260.3 68.65 254.15L134 219.8L199.35 254.15C210.95 260.25 224.8 250.45 222.55 237.3L210.05 164.55L262.9 113.05C272.4 103.8 267.15 87.6505 254.05 85.7505V85.7505ZM184.3 156.15L196.15 225.35L134 192.7L71.85 225.35L83.7 156.15L33.4 107.15L102.9 97.0505L134 34.0505L165.1 97.0505L234.6 107.15L184.3 156.15V156.15Z" fill="#FFCD1C"/>
</svg>
