<svg width="205" height="195" viewBox="0 0 205 195" fill="none" xmlns="http://www.w3.org/2000/svg">
<path d="M128.133 65.9108L110.28 9.88547C107.819 2.16281 96.9729 1.93897 94.1954 9.55349L73.6172 65.9692C73.4077 66.5436 72.8706 66.9333 72.2596 66.9543L12.3914 69.014C4.31232 69.292 1.1463 79.6277 7.68368 84.3829L57.5907 120.684C58.1158 121.066 58.3356 121.743 58.1351 122.36L39.3384 180.277C36.7963 188.11 45.7635 194.619 52.4232 189.775L101.618 153.992C102.144 153.61 102.856 153.61 103.382 153.992L152.577 189.775C159.236 194.619 168.204 188.11 165.662 180.277L146.865 122.36C146.664 121.743 146.884 121.066 147.409 120.684L197.289 84.4028C203.831 79.6441 200.655 69.3001 192.569 69.0335L129.512 66.9545C128.878 66.9336 128.325 66.5156 128.133 65.9108Z" stroke="#FFCD1C" stroke-width="7"/>
</svg>
