<svg width="17" height="24" viewBox="0 0 17 24" fill="none" xmlns="http://www.w3.org/2000/svg">
<mask id="path-1-inside-1" fill="white">
<path fill-rule="evenodd" clip-rule="evenodd" d="M0 0H16V15H16L16.0273 23L7.99009 17.6814L0.0112305 23.0166L0.00150541 16H0V0Z"/>
</mask>
<path d="M16 0H18V-2H16V0ZM0 0V-2H-2V0H0ZM16 15H14V17H16V15ZM16 15L18 14.9932L17.9932 13H16V15ZM16.0273 23L14.9236 24.6679L18.0401 26.7302L18.0273 22.9932L16.0273 23ZM7.99009 17.6814L9.0938 16.0135L7.98432 15.2793L6.87838 16.0188L7.99009 17.6814ZM0.0112305 23.0166L-1.98877 23.0194L-1.98359 26.7564L1.12294 24.6792L0.0112305 23.0166ZM0.00150541 16L2.0015 15.9972L1.99874 14H0.00150541V16ZM0 16H-2V18H0V16ZM16 -2H0V2H16V-2ZM18 15V0H14V15H18ZM16 17H16V13H16V17ZM14 15.0069L14.0274 23.0068L18.0273 22.9932L18 14.9932L14 15.0069ZM17.1311 21.3321L9.0938 16.0135L6.88638 19.3493L14.9236 24.6679L17.1311 21.3321ZM1.12294 24.6792L9.10179 19.3439L6.87838 16.0188L-1.10048 21.354L1.12294 24.6792ZM-1.99849 16.0028L-1.98877 23.0194L2.01123 23.0138L2.0015 15.9972L-1.99849 16.0028ZM0 18H0.00150541V14H0V18ZM-2 0V16H2V0H-2Z" fill="#6100FF" mask="url(#path-1-inside-1)"/>
</svg>
