<svg width="268" height="256" viewBox="0 0 268 256" fill="none" xmlns="http://www.w3.org/2000/svg">
<path d="M254.275 85.755L181.09 75.1L148.385 8.905C145.445 2.99 139.71 0 133.975 0C128.275 0 122.58 2.95 119.63 8.905L86.915 75.095L13.725 85.74C0.600029 87.64 -4.65997 103.785 4.85503 113.035L57.8 164.535L45.27 237.275C43.49 247.665 51.785 256 61.075 256C63.54 256 66.075 255.415 68.51 254.125L133.985 219.785L199.455 254.135C201.885 255.41 204.415 255.99 206.87 255.99C216.17 255.99 224.48 247.685 222.7 237.29L210.185 164.545L263.14 113.055C272.66 103.805 267.4 87.655 254.275 85.755ZM193.405 147.355L184.345 156.165L186.485 168.605L196.245 225.33L145.18 198.535L133.99 192.665L134.005 34.07L159.52 85.715L165.11 97.03L177.615 98.85L234.73 107.165L193.405 147.355Z" fill="#FFCD1C"/>
</svg>
